<?xml version="1.0" encoding="utf-8"?>
<!-- Generator: Adobe Illustrator 27.0.1, SVG Export Plug-In . SVG Version: 6.00 Build 0)  -->
<svg version="1.1" id="Layer_1" xmlns="http://www.w3.org/2000/svg" xmlns:xlink="http://www.w3.org/1999/xlink" x="0px" y="0px"
	 viewBox="0 0 32 32" style="enable-background:new 0 0 32 32;" xml:space="preserve">
<style type="text/css">
	.st0{fill:#FFFFFF;}
</style>
<g>
	<path class="st0" d="M6.3,2L3.2,20.7l-0.5,3.1L2.1,27l-0.5,3.1l-0.1,0.3l0.3-0.1L5,29.9l3.3-0.5l3.1-0.5L30,25.7V2H6.3z M26,6v3h-3
		V6H26z M9.7,6h2.8c0,1.6-1.3,3-3,3C9.4,9,9.3,9,9.2,9L9.7,6z M6.4,25.6L7,22.1c1.4,0.4,2.5,1.5,2.9,2.9L6.4,25.6z M11.8,24.7
		c-0.5-2.2-2.3-4-4.5-4.5L8.9,11c0.2,0,0.4,0,0.7,0c2.8,0,5-2.2,5-5H21v5h5v9.6l-4-4L20.6,18l4.5,4.5L11.8,24.7z"/>
</g>
</svg>
